<svg data-v-423bf9ae="" xmlns="http://www.w3.org/2000/svg" viewBox="0 0 489 90" class="iconLeft"><!----><!----><!----><g data-v-423bf9ae="" id="ba2741c8-c8d9-4f16-b84e-735fefb54c42" fill="black" transform="matrix(4.622496310940746,0,0,4.622496310940746,97.09332679688194,0.023112146887001472)"><path d="M2.65 3.82L1.17 3.82L1.17 13.15L2.65 13.15ZM8.17 6.36C7.23 6.36 6.53 6.75 6.13 7.32L5.95 6.53L4.71 6.53L4.71 13.15L6.13 13.15L6.13 9.11C6.24 7.95 7.03 7.57 7.77 7.57C8.79 7.57 9.23 8.30 9.23 9.38L9.23 13.15L10.65 13.15L10.65 9.06C10.65 7 9.32 6.36 8.17 6.36ZM11.68 12.22C12.16 12.88 13.17 13.34 14.41 13.34C16.04 13.34 17.05 12.54 17.05 11.35C17.05 9.00 13.55 9.79 13.55 8.36C13.55 7.86 13.93 7.53 14.70 7.51C15.18 7.50 15.74 7.73 16.13 8.11L16.90 7.22C16.46 6.75 15.62 6.36 14.64 6.36C13.07 6.36 12.10 7.19 12.10 8.41C12.10 10.82 15.55 10.09 15.55 11.38C15.55 11.87 15.14 12.21 14.32 12.21C13.66 12.21 13.07 11.97 12.59 11.35ZM19.24 5.26C19.75 5.26 20.15 4.86 20.15 4.36C20.15 3.86 19.75 3.46 19.24 3.46C18.74 3.46 18.33 3.86 18.33 4.36C18.33 4.86 18.74 5.26 19.24 5.26ZM18.56 13.15L19.95 13.15L19.95 6.53L18.56 6.53ZM27.10 6.53L26.91 7.47C26.40 6.80 25.62 6.36 24.60 6.36C22.88 6.36 21.51 7.67 21.51 9.81C21.51 11.96 22.88 13.27 24.60 13.27C25.56 13.27 26.32 12.89 26.83 12.26L26.83 12.43C26.83 14.13 26.32 15.02 24.92 15.02C24.56 15.02 24.16 14.95 23.81 14.79L23.49 15.98C23.93 16.13 24.47 16.22 25.00 16.22C27.15 16.22 28.25 14.95 28.25 12.54L28.25 6.53ZM24.94 12.07C23.74 12.07 22.95 11.11 22.95 9.81C22.95 8.53 23.74 7.54 24.94 7.54C26.18 7.54 26.98 8.53 26.98 9.81C26.98 11.11 26.18 12.07 24.94 12.07ZM33.47 6.36C32.54 6.36 31.82 6.75 31.41 7.35L31.41 3.24L30.00 3.24L30.00 13.15L31.41 13.15L31.41 9.42C31.41 8.02 32.27 7.57 33.08 7.57C34.10 7.57 34.53 8.30 34.53 9.38L34.53 13.15L35.95 13.15L35.95 9.06C35.95 7 34.62 6.36 33.47 6.36ZM40.77 6.53L39.36 6.53L39.36 4.64L37.96 4.64L37.96 6.53L37.09 6.53L37.09 7.67L37.96 7.67L37.96 13.15L39.38 13.15L39.36 7.67L40.77 7.67ZM47.95 3.82L47.95 7.73L43.62 7.73L43.62 3.82L42.13 3.82L42.13 13.15L43.62 13.15L43.62 8.94L47.95 8.94L47.95 13.15L49.44 13.15L49.44 3.82ZM56.50 6.53L56.31 7.45C55.80 6.78 55.02 6.36 54.00 6.36C52.28 6.36 50.91 7.69 50.91 9.84C50.91 12.00 52.28 13.31 54.00 13.31C55.01 13.31 55.78 12.89 56.29 12.22L56.50 13.15L57.66 13.15L57.66 6.53ZM54.34 12.12C53.14 12.12 52.35 11.14 52.35 9.84C52.35 8.55 53.14 7.55 54.34 7.55C55.58 7.55 56.38 8.55 56.38 9.84C56.38 11.14 55.58 12.12 54.34 12.12ZM62.50 6.36C61.72 6.36 61.19 6.74 60.81 7.41L60.64 6.53L59.41 6.53L59.41 13.15L60.83 13.15L60.83 9.70C60.83 8.62 61.40 7.66 62.43 7.66C62.66 7.66 62.88 7.70 63.07 7.79L63.50 6.58C63.32 6.47 62.94 6.36 62.50 6.36ZM67.99 6.36C67.04 6.36 66.31 6.72 65.80 7.32L65.80 3.24L64.39 3.24L64.39 13.15L65.54 13.15L65.71 12.25C66.22 12.91 67.00 13.31 67.99 13.31C69.71 13.31 71.08 12.00 71.08 9.84C71.08 7.69 69.71 6.36 67.99 6.36ZM67.65 12.12C66.41 12.12 65.61 11.14 65.61 9.84C65.61 8.55 66.41 7.55 67.65 7.55C68.85 7.55 69.64 8.55 69.64 9.84C69.64 11.14 68.85 12.12 67.65 12.12ZM75.67 13.34C77.76 13.34 79.22 11.81 79.22 9.84C79.22 7.89 77.76 6.36 75.67 6.36C73.56 6.36 72.11 7.89 72.11 9.84C72.11 11.81 73.56 13.34 75.67 13.34ZM75.67 12.13C74.45 12.13 73.59 11.14 73.59 9.84C73.59 8.56 74.45 7.57 75.67 7.57C76.88 7.57 77.74 8.56 77.74 9.84C77.74 11.14 76.88 12.13 75.67 12.13ZM83.69 6.36C82.91 6.36 82.38 6.74 82.00 7.41L81.83 6.53L80.60 6.53L80.60 13.15L82.02 13.15L82.02 9.70C82.02 8.62 82.59 7.66 83.62 7.66C83.85 7.66 84.07 7.70 84.26 7.79L84.69 6.58C84.51 6.47 84.13 6.36 83.69 6.36Z"></path></g><!----><g data-v-423bf9ae="" id="e33e2916-a9f6-440f-98b2-2c29a991708d" transform="matrix(7.732374757144093,0,0,7.732374757144093,-7.087920508101114,-3.5660922338020313)" stroke="none" fill="black"><path d="M6.376.53a1.362 1.362 0 00-.585 2.605l-.155 6.653a.634.634 0 01-.71.6 2.28 2.28 0 01-1.59-.952.634.634 0 01.253-.94 4.082 4.082 0 01-2.345-1.788.057.057 0 00-.103.014 3.219 3.219 0 00.654 2.99.432.432 0 01.24-.157.285.285 0 01.31.129A4.453 4.453 0 005.22 11.71a2.02 2.02 0 011.077.44.086.086 0 00.108 0 2.02 2.02 0 011.077-.44 4.453 4.453 0 002.873-2.027.285.285 0 01.31-.129.432.432 0 01.24.157 3.219 3.219 0 00.655-2.99.057.057 0 00-.103-.014A4.082 4.082 0 019.11 8.496a.634.634 0 01.253.94 2.28 2.28 0 01-1.591.952.634.634 0 01-.71-.63l-.154-6.623A1.362 1.362 0 006.376.53zm-.043.778a.584.584 0 01.601.584.584.584 0 11-1.168 0 .584.584 0 01.567-.584z"></path></g><!----></svg>